<svg width="39" height="39" viewBox="0 0 39 39" fill="none" xmlns="http://www.w3.org/2000/svg">
<path d="M19.5 0.75C15.7916 0.75 12.1665 1.84967 9.08304 3.90994C5.99961 5.97022 3.59638 8.89857 2.17724 12.3247C0.758094 15.7508 0.386781 19.5208 1.11025 23.1579C1.83373 26.7951 3.61949 30.136 6.24173 32.7583C8.86396 35.3805 12.2049 37.1663 15.842 37.8897C19.4792 38.6132 23.2492 38.2419 26.6753 36.8227C30.1014 35.4036 33.0298 33.0004 35.09 29.9169C37.1503 26.8335 38.25 23.2084 38.25 19.5C38.25 17.0377 37.765 14.5995 36.8227 12.3247C35.8804 10.0498 34.4993 7.98285 32.7582 6.24175C31.0171 4.50065 28.9501 3.11953 26.6753 2.17726C24.4004 1.23498 21.9623 0.75 19.5 0.75ZM19.5 34.5C16.5333 34.5 13.6332 33.6203 11.1664 31.972C8.69969 30.3238 6.7771 27.9811 5.64179 25.2403C4.50647 22.4994 4.20942 19.4834 4.7882 16.5736C5.36698 13.6639 6.79559 10.9912 8.89338 8.8934C10.9912 6.79561 13.6639 5.367 16.5736 4.78822C19.4833 4.20944 22.4993 4.50649 25.2402 5.64181C27.9811 6.77712 30.3238 8.69971 31.972 11.1664C33.6202 13.6332 34.5 16.5333 34.5 19.5C34.5 23.4782 32.9196 27.2936 30.1066 30.1066C27.2935 32.9196 23.4782 34.5 19.5 34.5Z" fill="#0A0F8C"/>
<path d="M24.5625 12.7312L17.475 22.1062L14.4187 18.15C14.1129 17.7571 13.6635 17.5019 13.1695 17.4403C12.6754 17.3788 12.1772 17.516 11.7843 17.8219C11.3915 18.1277 11.1362 18.5771 11.0747 19.0711C11.0131 19.5651 11.1504 20.0634 11.4562 20.4562L16.0125 26.2875C16.189 26.511 16.4142 26.6913 16.6708 26.8147C16.9275 26.9382 17.2089 27.0015 17.4937 27C17.7801 26.9993 18.0624 26.933 18.3192 26.8063C18.576 26.6795 18.8003 26.4956 18.975 26.2687L27.5437 15.0187C27.847 14.6209 27.9799 14.1189 27.9131 13.6231C27.8463 13.1273 27.5853 12.6783 27.1875 12.375C26.7896 12.0717 26.2876 11.9388 25.7918 12.0056C25.296 12.0724 24.847 12.3334 24.5437 12.7312H24.5625Z" fill="#0A0F8C"/>
</svg>
