<svg width="42" height="42" viewBox="0 0 42 42" fill="none" xmlns="http://www.w3.org/2000/svg">
<path d="M21 14C20.5359 14 20.0908 14.1844 19.7626 14.5126C19.4344 14.8408 19.25 15.2859 19.25 15.75V35C19.25 35.4641 19.4344 35.9093 19.7626 36.2374C20.0908 36.5656 20.5359 36.75 21 36.75C21.4641 36.75 21.9092 36.5656 22.2374 36.2374C22.5656 35.9093 22.75 35.4641 22.75 35V15.75C22.75 15.2859 22.5656 14.8408 22.2374 14.5126C21.9092 14.1844 21.4641 14 21 14Z" fill="#878181"/>
<path d="M33.25 7C32.7859 7 32.3408 7.18437 32.0126 7.51256C31.6844 7.84075 31.5 8.28587 31.5 8.75V35C31.5 35.4641 31.6844 35.9093 32.0126 36.2374C32.3408 36.5656 32.7859 36.75 33.25 36.75C33.7141 36.75 34.1592 36.5656 34.4874 36.2374C34.8156 35.9093 35 35.4641 35 35V8.75C35 8.28587 34.8156 7.84075 34.4874 7.51256C34.1592 7.18437 33.7141 7 33.25 7Z" fill="#878181"/>
<path d="M8.75 21C8.28587 21 7.84075 21.1844 7.51256 21.5126C7.18437 21.8408 7 22.2859 7 22.75V35C7 35.4641 7.18437 35.9092 7.51256 36.2374C7.84075 36.5656 8.28587 36.75 8.75 36.75C9.21413 36.75 9.65925 36.5656 9.98744 36.2374C10.3156 35.9092 10.5 35.4641 10.5 35V22.75C10.5 22.2859 10.3156 21.8408 9.98744 21.5126C9.65925 21.1844 9.21413 21 8.75 21Z" fill="#878181"/>
</svg>
